<?xml version="1.0" encoding="utf-8"?>
<!-- Generator: Adobe Illustrator 21.1.0, SVG Export Plug-In . SVG Version: 6.00 Build 0)  -->
<svg version="1.1" xmlns="http://www.w3.org/2000/svg" xmlns:xlink="http://www.w3.org/1999/xlink" x="0px" y="0px"
	 viewBox="0 0 82.2 82.3" style="enable-background:new 0 0 82.2 82.3;" xml:space="preserve">
<style type="text/css">
	.st0{fill:#FF000F;}
</style>
<g id="Layer_1">
	<g>
		<path class="st0" d="M13.9,37.6v6.9h17v29.2c-13-4.1-22.4-15.6-23.7-29.2h0.1c-0.1-1.1-0.2-2.2-0.2-3.3c0-1.3,0.1-2.5,0.2-3.7H7.2
			C8.7,24,18,12.7,30.9,8.6v0.1c2.2-0.7,4.6-1.2,7-1.4V0l-4.1,0.7C14.2,4.3,0,21.3,0,41.2C0,61,14.2,78,33.7,81.6l4.1,0.7V37.6H13.9
			z"/>
		<path class="st0" d="M58.2,3.8v7.9C67.4,17,73.8,26.5,75,37.5H51.3V8.6c0,0,0,0,0,0V1.4c-1-0.2-1.9-0.5-2.9-0.6L44.3,0v82.3
			l4.1-0.7c1-0.2,2-0.4,2.9-0.6v-7.3c0,0,0,0,0,0V44.5H75c-1.1,11.1-7.5,20.8-16.8,26.2v7.9c14.3-6.5,24-21,24-37.4
			C82.2,24.8,72.5,10.3,58.2,3.8z"/>
	</g>
</g>
<g id="Layer_2">
</g>
</svg>
